#N canvas 354 382 647 274 12;
#X obj 26 36 tgl 15 0 empty empty empty 17 7 0 10 -262144 -1 -1 0 1
;
#X floatatom 26 170 10 0 0 0 - - -, f 10;
#X floatatom 194 207 5 0 0 0 - - -, f 5;
#X floatatom 237 207 5 0 0 0 - - -, f 5;
#X floatatom 280 207 5 0 0 0 - - -, f 5;
#X symbolatom 110 170 10 0 0 0 - - -, f 10;
#X obj 26 109 jacktime;
#X floatatom 366 207 5 0 0 0 - - -, f 5;
#X floatatom 410 207 5 0 0 0 - - -, f 5;
#X text 237 227 beats;
#X floatatom 453 207 5 0 0 0 - - -, f 5;
#X floatatom 496 207 5 0 0 0 - - -, f 5;
#X text 194 227 bars;
#X text 280 227 ticks;
#X text 379 227 meter;
#X text 453 227 ppq;
#X text 496 227 bpm;
#X obj 194 170 unpack f f f f f f f;
#X obj 58 36 bng 15 250 50 0 empty empty empty 17 7 0 10 -262144 -1
-1;
#X msg 91 36 start;
#X msg 146 36 stop;
#X text 9 194 current frame;
#X text 117 193 status;
#X text 349 170 BBT \, if available;
#X msg 146 65 locate 0;
#X msg 396 140 locate \$1;
#X floatatom 396 90 5 0 0 0 - - -, f 5;
#X text 23 11 bang or nonzero starts reporting \, 0 stops it;
#X text 186 36 start gets transport rolling \, stop stops it;
#X text 218 64 locate seeks to the given position (in frames);
#X text 90 89 here's how to seek to a given time in sec:;
#X obj 522 90 loadbang;
#X obj 522 114 t b b;
#X obj 522 140 samplerate~;
#X msg 553 198 \; pd dsp 1;
#X floatatom 522 166 5 0 0 0 - - sr, f 5;
#X obj 441 90 r sr;
#X obj 396 114 *;
#X connect 0 0 6 0;
#X connect 6 0 1 0;
#X connect 6 1 5 0;
#X connect 6 2 17 0;
#X connect 17 0 2 0;
#X connect 17 1 3 0;
#X connect 17 2 4 0;
#X connect 17 3 7 0;
#X connect 17 4 8 0;
#X connect 17 5 10 0;
#X connect 17 6 11 0;
#X connect 18 0 6 0;
#X connect 19 0 6 0;
#X connect 20 0 6 0;
#X connect 24 0 6 0;
#X connect 25 0 6 0;
#X connect 26 0 37 0;
#X connect 31 0 32 0;
#X connect 32 0 33 0;
#X connect 32 1 34 0;
#X connect 33 0 35 0;
#X connect 36 0 37 1;
#X connect 37 0 25 0;
