#N canvas 304 329 649 422 12;
#X obj 27 166 timebase;
#X msg 27 45 4 4;
#X msg 124 45 9 8;
#X floatatom 115 94 5 0 0 0 - bpm -, f 5;
#X text 161 94 2nd inlet: tempo (bpm);
#X text 166 45 1st inlet: metre (optionally with subdivision);
#X msg 203 118 jack 1;
#X msg 203 142 int 1;
#X text 267 132 3rd inlet: jack/internal timebase toggles;
#X floatatom 27 235 5 0 0 0 - - -, f 5;
#X floatatom 115 262 5 0 0 0 - - -, f 5;
#X text 164 261 2nd outlet: numerator of metre (total #pulses);
#X floatatom 203 291 5 0 0 0 - - -, f 5;
#X msg 27 71 4 4 2;
#X text 250 290 3rd outlet: note durations (metro pulse time);
#X msg 27 96 4 4 3;
#X msg 77 45 3 4;
#X msg 77 71 3 4 3;
#N canvas 373 288 491 476 clicks 0;
#X obj 47 267 mtof;
#X obj 47 293 osc~;
#X obj 47 318 *~;
#X obj 156 319 vline~;
#X obj 47 344 dac~;
#X obj 47 241 makenote 0.2 500;
#X obj 47 62 sel 0;
#X obj 47 12 inlet;
#X obj 155 22 inlet;
#X obj 112 86 t f f;
#X obj 112 112 int;
#X obj 112 138 ==;
#X obj 112 163 sel 0;
#X floatatom 155 78 5 0 0 0 - - -, f 5;
#X msg 156 294 \$1 10;
#X obj 155 53 / 4;
#X obj 233 195 hsl 64 15 0 1 0 0 empty empty empty -2 -8 0 10 -262144
-1 -1 1400 1;
#X obj 256 240 sel 0;
#X msg 288 266 \; pd dsp 1;
#X obj 156 267 *;
#X obj 87 267 pack f f;
#X obj 233 215 t f f f;
#X obj 370 94 spigot;
#X obj 370 119 unpack f f;
#X obj 370 214 noteout 10;
#X obj 370 144 - 16;
#X text 39 394 If you have a GM-compatible synth with a drumkit \,
hook it up to Pd's first MIDI output.;
#X obj 312 195 tgl 15 0 empty empty empty 17 7 0 10 -262144 -1 -1 1
1;
#X obj 47 37 t f f;
#X obj 370 307 spigot;
#X obj 460 282 tgl 15 0 empty empty empty 17 7 0 10 -262144 -1 -1 0
1;
#X obj 370 332 print midi;
#X obj 370 282 pack f f f;
#X msg 47 86 52 0.4;
#X msg 172 195 56 0.3;
#X msg 112 194 60 0.2;
#X obj 437 144 * 160;
#X text 61 362 audio clicks;
#X text 388 237 midi clicks;
#X connect 0 0 1 0;
#X connect 1 0 2 0;
#X connect 2 0 4 0;
#X connect 2 0 4 1;
#X connect 3 0 2 1;
#X connect 5 0 0 0;
#X connect 5 0 20 0;
#X connect 5 1 19 0;
#X connect 5 1 20 1;
#X connect 6 0 33 0;
#X connect 6 1 9 0;
#X connect 7 0 28 0;
#X connect 8 0 15 0;
#X connect 9 0 10 0;
#X connect 9 1 11 1;
#X connect 10 0 11 0;
#X connect 11 0 12 0;
#X connect 12 0 35 0;
#X connect 12 1 34 0;
#X connect 13 0 5 2;
#X connect 14 0 3 0;
#X connect 15 0 13 0;
#X connect 16 0 21 0;
#X connect 17 1 18 0;
#X connect 19 0 14 0;
#X connect 20 0 22 0;
#X connect 21 0 19 1;
#X connect 21 1 17 0;
#X connect 22 0 23 0;
#X connect 23 0 25 0;
#X connect 23 1 36 0;
#X connect 25 0 24 0;
#X connect 25 0 32 0;
#X connect 27 0 22 1;
#X connect 28 0 6 0;
#X connect 28 1 32 2;
#X connect 29 0 31 0;
#X connect 30 0 29 1;
#X connect 32 0 29 0;
#X connect 33 0 5 0;
#X connect 34 0 5 0;
#X connect 35 0 5 0;
#X connect 36 0 24 1;
#X connect 36 0 32 1;
#X coords 0 -1 1 1 109 41 1 225 174;
#X restore 27 356 pd clicks;
#X obj 533 17 loadbang;
#X msg 533 42 \; bpm 120;
#X text 76 236 1st outlet: beats (pulses counted from 0 to num-1);
#X text 24 3 timebase is a little helper abstraction which generates
rhythmic pulses and optionally syncs to a Jack time source;
#X text 36 316 NOTE: beats can be fractional if div>1;
#X text 147 358 example: metronome clicks: turn up volume to enable
\, or click toggle to add MIDI output on channel 10 GM (drumkit);
#X text 231 168 red jack toggle activates external time sync \; green
toggle switches to internal timer (metro) \; div denotes subdivions
of the base pulse;
#X connect 0 0 9 0;
#X connect 0 1 10 0;
#X connect 0 2 12 0;
#X connect 1 0 0 0;
#X connect 2 0 0 0;
#X connect 3 0 0 1;
#X connect 6 0 0 2;
#X connect 7 0 0 2;
#X connect 9 0 18 0;
#X connect 12 0 18 1;
#X connect 13 0 0 0;
#X connect 15 0 0 0;
#X connect 16 0 0 0;
#X connect 17 0 0 0;
#X connect 19 0 20 0;
