#N canvas 596 172 794 646.062 10;
#X floatatom 16 98 5 0 0 2 num #0-num -, f 5;
#X floatatom 53 98 5 0 0 2 unit #0-unit -, f 5;
#X floatatom 90 98 5 0 0 2 div #0-div -, f 5;
#X floatatom 127 98 5 0 0 2 bpm #0-bpm -, f 5;
#X obj 374 294 loadbang;
#X msg 374 316 4 4 1 120;
#X obj 374 338 unpack f f f f;
#X obj 53 120 / 4;
#X obj 127 168 *;
#X obj 127 119 t b f;
#X floatatom 72 185 5 0 0 1 ppm - -, f 5;
#X obj 72 206 swap 60000;
#X obj 72 228 /;
#X floatatom 72 250 5 0 0 1 dur - -, f 5;
#X obj 173 98 tgl 15 0 empty \$0-int empty 17 7 0 10 -64657 -1 -1 0
1;
#X obj 21 291 metro 500;
#X obj 21 313 bng 15 50 50 0 empty empty empty 17 7 0 10 -262144 -1
-1;
#X obj 21 333 f;
#X obj 51 333 + 1;
#X obj 81 333 mod 4;
#X obj 90 143 *;
#X obj 90 119 t b f;
#X obj 16 162 *;
#X floatatom 16 184 5 0 0 1 ppb - -, f 5;
#X floatatom 21 355 5 0 0 0 - - -, f 5;
#X obj 21 248 t f 0;
#X obj 217 251 inlet;
#X obj 375 251 inlet;
#X obj 217 295 unpack f f f;
#X floatatom 217 326 5 0 0 0 - - -, f 5;
#X floatatom 251 326 5 0 0 0 - - -, f 5;
#X floatatom 286 326 5 0 0 0 - - -, f 5;
#X obj 217 273 list append 1;
#X obj 21 376 / 1;
#X floatatom 21 398 5 0 0 0 - - -, f 5;
#X obj 194 408 outlet;
#X obj 442 251 inlet;
#X obj 265 408 outlet;
#X obj 336 408 outlet;
#X obj 375 273 s \$0-bpm;
#X obj 455 403 s \$0-bpm;
#X obj 217 347 s \$0-num;
#X obj 251 367 s \$0-unit;
#X obj 286 347 s \$0-div;
#X obj 374 362 s \$0-num;
#X obj 401 382 s \$0-unit;
#X obj 428 362 s \$0-div;
#X obj 173 69 tgl 15 0 empty \$0-jack jack -28 5 0 10 -258965 -1 -1
0 1;
#X symbolatom 79 68 10 0 0 0 - - -, f 10;
#X obj 202 28 jacktime;
#X floatatom 369 91 5 0 0 2 num - -, f 5;
#X floatatom 406 91 5 0 0 2 unit - -, f 5;
#X floatatom 443 91 5 0 0 2 ppq - -, f 5;
#X floatatom 480 91 5 0 0 2 bpm - -, f 5;
#X obj 258 50 unpack f f f f f f f;
#X obj 480 114 s \$0-bpm;
#X obj 369 115 s \$0-num;
#X obj 406 135 s \$0-unit;
#X obj 134 333 change;
#X floatatom 134 355 5 0 0 0 - - -, f 5;
#X obj 442 273 route int jack;
#X obj 442 295 s \$0-int;
#X obj 482 317 s \$0-jack;
#X obj 173 118 t f f;
#X obj 200 141 sel 1;
#X msg 200 163 0;
#X obj 200 185 s \$0-jack;
#X obj 266 141 sel 1;
#X msg 266 163 0;
#X obj 239 117 t f f;
#X obj 266 185 s \$0-int;
#X text 187 234 meter: num unit [div];
#X text 379 234 bpm;
#X text 439 234 int/jack toggle;
#X text 201 423 beat;
#X text 329 423 dur (metro tick);
#X text 250 423 num (meter);
#X obj 79 13 loadbang;
#X msg 79 35 symbol stopped;
#X obj 98 278 change;
#X obj 136 238 change;
#X obj 134 376 bng 15 50 50 0 empty empty empty 17 7 0 10 -262144 -1
-1;
#X obj 322 131 swap;
#X floatatom 378 166 5 0 0 2 beats - -, f 5;
#X floatatom 323 166 5 0 0 2 ticks - -, f 5;
#X obj 323 187 / 1920;
#X obj 323 209 * 1;
#X obj 323 231 int;
#X obj 323 253 / 1;
#X obj 356 209 t f f;
#X obj 323 275 +;
#X obj 378 187 - 1;
#X connect 0 0 22 0;
#X connect 0 0 80 0;
#X connect 1 0 7 0;
#X connect 2 0 21 0;
#X connect 2 0 89 0;
#X connect 3 0 9 0;
#X connect 4 0 5 0;
#X connect 5 0 6 0;
#X connect 6 0 44 0;
#X connect 6 1 45 0;
#X connect 6 2 46 0;
#X connect 6 3 40 0;
#X connect 7 0 20 0;
#X connect 8 0 10 0;
#X connect 9 0 8 0;
#X connect 9 1 8 1;
#X connect 10 0 11 0;
#X connect 11 0 12 0;
#X connect 11 1 12 1;
#X connect 12 0 13 0;
#X connect 13 0 15 1;
#X connect 13 0 79 0;
#X connect 14 0 63 0;
#X connect 15 0 16 0;
#X connect 16 0 17 0;
#X connect 17 0 18 0;
#X connect 17 0 24 0;
#X connect 18 0 19 0;
#X connect 19 0 17 1;
#X connect 20 0 8 0;
#X connect 21 0 20 0;
#X connect 21 0 22 0;
#X connect 21 1 20 1;
#X connect 21 1 22 1;
#X connect 21 1 33 1;
#X connect 22 0 23 0;
#X connect 23 0 19 1;
#X connect 24 0 33 0;
#X connect 25 0 15 0;
#X connect 25 1 17 1;
#X connect 26 0 32 0;
#X connect 27 0 39 0;
#X connect 28 0 29 0;
#X connect 28 1 30 0;
#X connect 28 2 31 0;
#X connect 29 0 41 0;
#X connect 30 0 42 0;
#X connect 31 0 43 0;
#X connect 32 0 28 0;
#X connect 33 0 34 0;
#X connect 34 0 35 0;
#X connect 36 0 60 0;
#X connect 47 0 69 0;
#X connect 49 1 48 0;
#X connect 49 2 54 0;
#X connect 50 0 56 0;
#X connect 51 0 57 0;
#X connect 52 0 85 1;
#X connect 53 0 55 0;
#X connect 54 1 82 0;
#X connect 54 2 82 1;
#X connect 54 3 50 0;
#X connect 54 4 51 0;
#X connect 54 5 52 0;
#X connect 54 6 53 0;
#X connect 58 0 59 0;
#X connect 59 0 34 0;
#X connect 59 0 81 0;
#X connect 60 0 61 0;
#X connect 60 1 62 0;
#X connect 60 2 61 0;
#X connect 63 0 25 0;
#X connect 63 1 64 0;
#X connect 64 0 65 0;
#X connect 65 0 66 0;
#X connect 67 0 68 0;
#X connect 68 0 70 0;
#X connect 69 0 49 0;
#X connect 69 1 67 0;
#X connect 77 0 78 0;
#X connect 78 0 48 0;
#X connect 79 0 38 0;
#X connect 80 0 37 0;
#X connect 82 0 84 0;
#X connect 82 1 83 0;
#X connect 83 0 91 0;
#X connect 84 0 85 0;
#X connect 85 0 86 0;
#X connect 86 0 87 0;
#X connect 87 0 88 0;
#X connect 88 0 90 0;
#X connect 89 0 86 1;
#X connect 89 1 88 1;
#X connect 90 0 58 0;
#X connect 91 0 90 1;
#X coords 0 -1 1 1 183 54 1 10 64;
